<?xml version="1.0" encoding="UTF-8" standalone="no"?>
<!DOCTYPE svg PUBLIC "-//W3C//DTD SVG 1.1//EN" "http://www.w3.org/Graphics/SVG/1.1/DTD/svg11.dtd">
<svg width="100%" height="100%" viewBox="0 0 36 32" version="1.1" xmlns="http://www.w3.org/2000/svg" xmlns:xlink="http://www.w3.org/1999/xlink" xml:space="preserve" xmlns:serif="http://www.serif.com/" style="fill-rule:evenodd;clip-rule:evenodd;stroke-linejoin:round;stroke-miterlimit:2;">
    <g id="SX" transform="matrix(0.386237,0,0,0.386237,-68.883096,-6.182819)">
        <g transform="matrix(0.271418,0,0,0.271418,88.435005,29.895794)">
            <path d="M487.446,100.406L487.446,152.544L461.908,152.544L461.908,88.008L487.446,100.406Z" style="fill:url(#_Radial1);"/>
        </g>
        <g transform="matrix(0.108563,0.149144,-0.098168,0.071457,170.388582,-23.170355)">
            <rect x="460.361" y="66.95" width="2.703" height="86.96" style="fill:rgb(101,145,182);"/>
        </g>
        <g transform="matrix(0.071817,-0.169918,0.082951,0.03506,175.011477,126.752309)">
            <rect x="460.361" y="66.95" width="2.703" height="86.96" style="fill:rgb(101,145,182);"/>
        </g>
        <g transform="matrix(0.065043,0.172624,-0.099693,0.037563,206.189343,-31.9856)">
            <rect x="460.361" y="66.95" width="2.703" height="86.96" style="fill:rgb(101,145,182);"/>
        </g>
        <g transform="matrix(0.065043,0.172624,-0.075528,0.028458,219.993082,-29.128081)">
            <rect x="460.361" y="66.95" width="2.703" height="86.96" style="fill:rgb(101,145,182);"/>
        </g>
        <g transform="matrix(0.065043,0.172624,-0.075528,0.028458,219.993082,-32.656513)">
            <rect x="460.361" y="66.95" width="2.703" height="86.96" style="fill:rgb(101,145,182);"/>
        </g>
        <g transform="matrix(0.065043,0.172624,-0.075528,0.028458,219.993082,-36.456364)">
            <rect x="460.361" y="66.95" width="2.703" height="86.96" style="fill:rgb(101,145,182);"/>
        </g>
        <g transform="matrix(-0.089307,0.161413,-0.089372,-0.049448,299.768674,-21.765415)">
            <rect x="460.361" y="66.95" width="2.703" height="86.96" style="fill:rgb(101,145,182);"/>
        </g>
        <g transform="matrix(-0.089307,0.161413,-0.089372,-0.049448,299.768674,-17.694147)">
            <rect x="460.361" y="66.95" width="2.703" height="86.96" style="fill:rgb(101,145,182);"/>
        </g>
        <g transform="matrix(-0.089307,0.161413,-0.089372,-0.049448,299.768674,-14.165714)">
            <rect x="460.361" y="66.95" width="2.703" height="86.96" style="fill:rgb(101,145,182);"/>
        </g>
        <g transform="matrix(0.271418,0,0,0.271418,88.435005,29.895794)">
            <path d="M599.308,111.061L576.488,98.435L576.488,93.372L576.821,92.77L599.308,105.211L599.308,111.061Z" style="fill:rgb(70,126,175);"/>
        </g>
        <g transform="matrix(0.271418,0,0,0.271418,88.435005,33.424226)">
            <path d="M599.308,111.061L576.488,98.435L576.488,93.372L576.821,92.77L599.308,105.211L599.308,111.061Z" style="fill:rgb(70,126,175);"/>
        </g>
        <g transform="matrix(0.271418,0,0,0.271418,88.435005,36.681241)">
            <path d="M599.308,111.061L576.488,98.435L576.488,93.372L576.821,92.77L599.308,105.211L599.308,111.061Z" style="fill:rgb(70,126,175);"/>
        </g>
        <g transform="matrix(0.271418,0,0,0.271418,88.435005,40.209674)">
            <path d="M599.308,111.061L576.488,98.435L576.488,93.372L576.821,92.77L599.308,105.211L599.308,111.061Z" style="fill:rgb(70,126,175);"/>
        </g>
        <g transform="matrix(0.271418,0,0,0.271418,88.435005,43.738106)">
            <path d="M599.308,111.061L576.488,98.435L576.488,93.372L576.821,92.77L599.308,105.211L599.308,111.061Z" style="fill:rgb(70,126,175);"/>
        </g>
        <g transform="matrix(0.065043,0.172624,-0.114003,0.042955,207.147434,-35.875032)">
            <rect x="460.361" y="66.95" width="2.703" height="86.96" style="fill:rgb(101,145,182);"/>
        </g>
        <g transform="matrix(0.065043,0.172624,-0.114003,0.042955,207.147434,-39.946301)">
            <rect x="460.361" y="66.95" width="2.703" height="86.96" style="fill:rgb(101,145,182);"/>
        </g>
        <g transform="matrix(-0.087756,0.162261,-0.103573,-0.056015,285.907291,-27.325075)">
            <rect x="460.361" y="66.95" width="2.703" height="86.96" style="fill:rgb(101,145,182);"/>
        </g>
        <g transform="matrix(-0.087756,0.162261,-0.103573,-0.056015,285.907291,-23.525225)">
            <rect x="460.361" y="66.95" width="2.703" height="86.96" style="fill:rgb(101,145,182);"/>
        </g>
        <g transform="matrix(0.271418,0,0,0.271418,88.435005,29.895794)">
            <path d="M519.955,60.679L519.981,60.631L552.837,78.401C552.851,78.614 552.88,78.813 552.956,79.236C553.132,80.219 553.032,81.977 553.028,83.91L552.971,84.016L519.756,66.053C519.585,64.475 520.435,62.894 519.955,60.679Z" style="fill:rgb(65,122,175);"/>
        </g>
        <g transform="matrix(0.271418,0,0,0.271418,88.435005,33.967062)">
            <path d="M519.955,60.679L519.981,60.631L552.837,78.401C552.851,78.614 552.88,78.813 552.956,79.236C553.132,80.219 553.032,81.977 553.028,83.91L552.971,84.016L519.756,66.053C519.585,64.475 520.435,62.894 519.955,60.679Z" style="fill:rgb(65,122,175);"/>
        </g>
        <g transform="matrix(0.271418,0,0,0.271418,88.435005,38.309748)">
            <path d="M519.955,60.679L519.981,60.631L552.837,78.401C552.851,78.614 552.88,78.813 552.956,79.236C553.132,80.219 553.032,81.977 553.028,83.91L552.971,84.016L519.756,66.053C519.585,64.475 520.435,62.894 519.955,60.679Z" style="fill:rgb(65,122,175);"/>
        </g>
        <g transform="matrix(0.271418,0,0,0.271418,88.435005,42.652435)">
            <path d="M519.955,60.679L519.981,60.631L552.837,78.401C552.851,78.614 552.88,78.813 552.956,79.236C553.132,80.219 553.032,81.977 553.028,83.91L552.971,84.016L519.756,66.053C519.585,64.475 520.435,62.894 519.955,60.679Z" style="fill:rgb(65,122,175);"/>
        </g>
        <g transform="matrix(0.271418,0,0,0.271418,88.435005,46.995121)">
            <path d="M519.955,60.679L519.981,60.631L552.837,78.401C552.851,78.614 552.88,78.813 552.956,79.236C553.132,80.219 553.032,81.977 553.028,83.91L552.971,84.016L519.756,66.053C519.585,64.475 520.435,62.894 519.955,60.679Z" style="fill:rgb(65,122,175);"/>
        </g>
        <g transform="matrix(0.271418,0,0,0.271418,88.435005,50.794971)">
            <path d="M519.955,60.679L519.981,60.631L552.837,78.401C552.851,78.614 552.88,78.813 552.956,79.236C553.132,80.219 553.032,81.977 553.028,83.91L552.971,84.016L519.756,66.053C519.585,64.475 520.435,62.894 519.955,60.679Z" style="fill:rgb(65,122,175);"/>
        </g>
        <g transform="matrix(0.065043,0.172624,-0.114003,0.042955,207.147434,-43.474733)">
            <rect x="460.361" y="66.95" width="2.703" height="86.96" style="fill:rgb(101,145,182);"/>
        </g>
        <g transform="matrix(0.271418,0,0,0.271418,88.496152,30.140379)">
            <rect x="460.361" y="66.95" width="2.703" height="86.96" style="fill:rgb(96,141,182);"/>
        </g>
        <g transform="matrix(0.271418,0,0,0.41433,104.088427,8.450611)">
            <rect x="460.361" y="66.95" width="2.703" height="86.96" style="fill:rgb(96,141,182);"/>
        </g>
        <g transform="matrix(0.271418,0,0,0.356727,119.527829,18.956735)">
            <rect x="460.361" y="66.95" width="2.703" height="86.96" style="fill:rgb(96,141,182);"/>
        </g>
        <g transform="matrix(0.271418,0,0,0.326543,125.642442,24.059296)">
            <rect x="460.361" y="66.95" width="2.703" height="86.96" style="fill:rgb(96,141,182);"/>
        </g>
        <g transform="matrix(0.150981,0,0,0.382596,168.724986,15.464811)">
            <rect x="460.361" y="66.95" width="2.703" height="86.96" style="fill:rgb(96,141,182);"/>
        </g>
        <g transform="matrix(0.271418,0,0,0.389901,95.536925,13.136106)">
            <rect x="460.361" y="66.95" width="2.703" height="86.96" style="fill:rgb(96,141,182);"/>
        </g>
        <g transform="matrix(0.271418,0,0,0.249068,81.708925,36.283805)">
            <rect x="460.361" y="66.95" width="2.703" height="86.96" style="fill:rgb(96,141,182);"/>
        </g>
        <g transform="matrix(0.271418,0,0,0.271418,88.190421,29.771721)">
            <path d="M333.98,169.609C328.833,167.908 333.98,171.408 333.98,169.609C333.98,159.895 409.848,152.009 503.295,152.009C596.743,152.009 672.611,159.895 672.611,169.609C672.611,171.408 677.758,167.908 672.611,169.609L333.98,169.609Z" style="fill:rgb(133,155,178);"/>
        </g>
    </g>
    <defs>
        <radialGradient id="_Radial1" cx="0" cy="0" r="1" gradientUnits="userSpaceOnUse" gradientTransform="matrix(25.537758,0,0,64.535432,461.908389,120.275812)"><stop offset="0" style="stop-color:white;stop-opacity:1"/><stop offset="1" style="stop-color:rgb(96,141,182);stop-opacity:1"/></radialGradient>
    </defs>
</svg>
